<?xml version="1.0" encoding="UTF-8" standalone="no"?><!DOCTYPE svg PUBLIC "-//W3C//DTD SVG 1.1//EN" "http://www.w3.org/Graphics/SVG/1.1/DTD/svg11.dtd"><svg width="100%" height="100%" viewBox="0 0 356 282" version="1.1" xmlns="http://www.w3.org/2000/svg" xmlns:xlink="http://www.w3.org/1999/xlink" xml:space="preserve" xmlns:serif="http://www.serif.com/" style="fill-rule:evenodd;clip-rule:evenodd;stroke-linecap:square;stroke-miterlimit:1.5;"><g id="Logo"><g id="Mobile"><path d="M243.459,197.234c0,-4.339 -3.522,-7.862 -7.861,-7.862l-15.723,0c-4.339,0 -7.862,3.523 -7.862,7.862l0,59.954c0,4.339 3.523,7.862 7.862,7.862l15.723,0c4.339,0 7.861,-3.523 7.861,-7.862l0,-59.954Z"/><path d="M280.582,153.205c0,-4.339 -3.523,-7.862 -7.862,-7.862l-15.723,0c-4.338,0 -7.861,3.523 -7.861,7.862l0,103.983c0,4.339 3.523,7.862 7.861,7.862l15.723,0c4.339,0 7.862,-3.523 7.862,-7.862l0,-103.983Z"/><path d="M317.59,102.415c0,-4.339 -3.523,-7.861 -7.861,-7.861l-15.723,0c-4.339,0 -7.862,3.522 -7.862,7.861l0,154.773c0,4.339 3.523,7.862 7.862,7.862l15.723,0c4.338,0 7.861,-3.523 7.861,-7.862l0,-154.773Z"/><path d="M355.348,60.962c0,-4.339 -3.523,-7.862 -7.862,-7.862l-15.723,0c-4.338,0 -7.861,3.523 -7.861,7.862l0,196.226c0,4.339 3.523,7.862 7.861,7.862l15.723,0c4.339,0 7.862,-3.523 7.862,-7.862l0,-196.226Z" style="fill:#f7051a;"/></g><g id="WiFi"><ellipse cx="152.835" cy="243.572" rx="8.617" ry="9.16" style="fill:#f7051a;stroke:#f7051b;stroke-width:31.66px;"/><path d="M20.024,69.309c89.825,-67.129 176.868,-64.259 265.621,-0.072" style="fill:none;stroke:#0b0808;stroke-width:40.05px;stroke-linecap:round;stroke-linejoin:round;"/><path d="M54.184,113.35c66.726,-52.777 131.38,-50.525 197.302,-0.071" style="fill:none;stroke:#0b0808;stroke-width:40.04px;stroke-linecap:round;stroke-linejoin:round;"/><path d="M89.347,154.651c42.94,-32.49 84.549,-31.101 126.976,-0.037" style="fill:none;stroke:#0b0808;stroke-width:40.05px;stroke-linecap:round;stroke-linejoin:round;"/><path d="M123.866,197.461c19.595,-16.175 38.581,-15.486 57.938,-0.026" style="fill:none;stroke:#0b0808;stroke-width:40.03px;stroke-linecap:round;stroke-linejoin:round;"/></g></g></svg>