<?xml version="1.0" encoding="UTF-8" standalone="no"?><!DOCTYPE svg PUBLIC "-//W3C//DTD SVG 1.1//EN" "http://www.w3.org/Graphics/SVG/1.1/DTD/svg11.dtd"><svg width="100%" height="100%" viewBox="0 0 352 71" version="1.1" xmlns="http://www.w3.org/2000/svg" xmlns:xlink="http://www.w3.org/1999/xlink" xml:space="preserve" xmlns:serif="http://www.serif.com/" style="fill-rule:evenodd;clip-rule:evenodd;stroke-linecap:square;stroke-miterlimit:1.5;"><g id="Logo-with-Name" serif:id="Logo with Name"><g id="Logo"><g id="Mobile"><path d="M60.545,49.376c0,-1.079 -0.875,-1.954 -1.954,-1.954l-3.909,0c-1.078,0 -1.954,0.875 -1.954,1.954l0,15.049c0,1.078 0.876,1.954 1.954,1.954l3.909,0c1.079,0 1.954,-0.876 1.954,-1.954l0,-15.049Z"/><path d="M69.774,38.347c0,-1.079 -0.876,-1.955 -1.954,-1.955l-3.909,0c-1.079,0 -1.954,0.876 -1.954,1.955l0,26.078c0,1.078 0.875,1.954 1.954,1.954l3.909,0c1.078,0 1.954,-0.876 1.954,-1.954l0,-26.078Z"/><path d="M78.974,25.624c0,-1.079 -0.876,-1.954 -1.954,-1.954l-3.909,0c-1.079,0 -1.954,0.875 -1.954,1.954l0,38.801c0,1.078 0.875,1.954 1.954,1.954l3.909,0c1.078,0 1.954,-0.876 1.954,-1.954l0,-38.801Z"/><path d="M88.361,15.24c0,-1.079 -0.876,-1.954 -1.955,-1.954l-3.908,0c-1.079,0 -1.955,0.875 -1.955,1.954l0,49.185c0,1.078 0.876,1.954 1.955,1.954l3.908,0c1.079,0 1.955,-0.876 1.955,-1.954l0,-49.185Z" style="fill:#f7051b;"/></g><g id="WiFi"><ellipse cx="38.016" cy="60.999" rx="2.142" ry="2.295" style="fill:#f7051a;stroke:#f7051b;stroke-width:7.9px;"/><path d="M5,17.346c22.33,-16.816 43.969,-16.097 66.033,-0.018" style="fill:none;stroke:#0b0808;stroke-width:10px;stroke-linecap:round;stroke-linejoin:round;"/><path d="M13.492,28.378c16.588,-13.22 32.661,-12.656 49.049,-0.018" style="fill:none;stroke:#0b0808;stroke-width:10px;stroke-linecap:round;stroke-linejoin:round;"/><path d="M22.233,38.724c10.675,-8.139 21.019,-7.791 31.566,-0.009" style="fill:none;stroke:#0b0808;stroke-width:10px;stroke-linecap:round;stroke-linejoin:round;"/><path d="M30.815,49.448c4.871,-4.052 9.591,-3.879 14.403,-0.006" style="fill:none;stroke:#0b0808;stroke-width:10px;stroke-linecap:round;stroke-linejoin:round;"/></g></g><g transform="matrix(0.24,0,0,0.24,-85.0284,-32.2379)"><clipPath id="_clip1"><rect x="734.154" y="185.027" width="1082.77" height="228.662"/></clipPath><g clip-path="url(#_clip1)"><g transform="matrix(300,0,0,300,661.421,410.759)"><path d="M0.455,0l-0.181,-0.218c-0.026,-0.028 -0.039,-0.054 -0.039,-0.08c0,-0.027 0.01,-0.049 0.029,-0.068c0.019,-0.019 0.041,-0.029 0.068,-0.029l0.052,0c0.027,0 0.046,-0.005 0.056,-0.015c0.01,-0.01 0.015,-0.034 0.015,-0.071c0,-0.037 -0.005,-0.061 -0.015,-0.071c-0.01,-0.01 -0.029,-0.015 -0.056,-0.015l-0.185,0l0,0.567l-0.16,0l0,-0.571c0,-0.043 0.015,-0.08 0.045,-0.111c0.031,-0.03 0.068,-0.045 0.111,-0.045l0.189,0c0.071,0 0.127,0.021 0.169,0.062c0.041,0.041 0.062,0.098 0.062,0.169c0,0.072 -0.021,0.128 -0.062,0.169c-0.031,0.031 -0.074,0.05 -0.13,0.059l0.222,0.268l-0.19,0Z" style="fill:#f7051b;fill-rule:nonzero;"/></g><g transform="matrix(300,0,0,300,840.66,410.759)"><path d="M0.396,-0.359c-0.018,-0.024 -0.041,-0.037 -0.07,-0.041c-0.027,-0.004 -0.052,0.001 -0.076,0.014c-0.02,0.01 -0.035,0.026 -0.046,0.048c-0.011,0.02 -0.017,0.042 -0.017,0.066c0,0.032 0.009,0.059 0.028,0.081c0.021,0.024 0.051,0.037 0.089,0.037l0.202,0l0,0.154l-0.202,0c-0.094,0 -0.167,-0.033 -0.218,-0.099c-0.037,-0.048 -0.056,-0.107 -0.056,-0.175c0,-0.058 0.014,-0.109 0.041,-0.153c0.029,-0.047 0.069,-0.08 0.122,-0.101c0.034,-0.013 0.071,-0.019 0.111,-0.019c0.054,0 0.106,0.016 0.154,0.049c0.043,0.029 0.074,0.065 0.094,0.106c0.015,0.032 0.02,0.06 0.013,0.083c-0.006,0.026 -0.024,0.044 -0.055,0.052l-0.187,0.053c-0.006,0.003 -0.012,0.004 -0.019,0.004c-0.019,0 -0.034,-0.007 -0.047,-0.019c-0.012,-0.013 -0.018,-0.028 -0.018,-0.046c0,-0.015 0.004,-0.029 0.014,-0.041c0.009,-0.011 0.021,-0.019 0.035,-0.023l0.108,-0.03Z" style="fill:#f7051b;fill-rule:nonzero;"/></g><g transform="matrix(300,0,0,300,1001.88,410.759)"><path d="M0.567,-0.727l-0.16,0l0,0.46c0,0.042 -0.009,0.072 -0.028,0.09c-0.018,0.018 -0.045,0.027 -0.081,0.027c-0.035,0 -0.062,-0.009 -0.081,-0.027c-0.018,-0.019 -0.028,-0.049 -0.028,-0.092c0,-0.042 0.01,-0.073 0.028,-0.092c0.019,-0.018 0.046,-0.027 0.081,-0.027c0.024,0 0.044,0.003 0.062,0.009l0,-0.165c-0.02,-0.003 -0.041,-0.004 -0.062,-0.004c-0.08,0 -0.144,0.025 -0.194,0.074c-0.05,0.05 -0.075,0.118 -0.075,0.205c0,0.087 0.025,0.155 0.075,0.205c0.05,0.049 0.114,0.074 0.194,0.074c0.08,0 0.145,-0.025 0.194,-0.074c0.05,-0.049 0.075,-0.118 0.075,-0.205l0,-0.458Z" style="fill:#f7051b;fill-rule:nonzero;"/></g><g transform="matrix(300,0,0,300,1168.81,410.759)"><path d="M0.134,-0.752c0.025,0 0.046,0.008 0.064,0.026c0.017,0.018 0.026,0.039 0.026,0.064c0,0.025 -0.009,0.046 -0.026,0.063c-0.018,0.018 -0.039,0.027 -0.064,0.027c-0.025,0 -0.046,-0.009 -0.064,-0.027c-0.017,-0.017 -0.026,-0.038 -0.026,-0.063c0,-0.025 0.009,-0.046 0.026,-0.064c0.018,-0.018 0.039,-0.026 0.064,-0.026Zm0.08,0.752l-0.16,0l0,-0.523l0.16,0l0,0.523Z" style="fill:#0b0808;fill-rule:nonzero;"/></g><g transform="matrix(300,0,0,300,1234.23,410.759)"><path d="M0.572,-0.727l0,0.159l-0.201,0l0,0.568l-0.16,0l0,-0.568l-0.201,0l0,-0.159l0.562,0Z" style="fill:#0b0808;fill-rule:nonzero;"/></g><g transform="matrix(300,0,0,300,1359.57,410.759)"><path d="M0.396,-0.359c-0.018,-0.024 -0.041,-0.037 -0.07,-0.041c-0.027,-0.004 -0.052,0.001 -0.076,0.014c-0.02,0.01 -0.035,0.026 -0.046,0.048c-0.011,0.02 -0.017,0.042 -0.017,0.066c0,0.032 0.009,0.059 0.028,0.081c0.021,0.024 0.051,0.037 0.089,0.037l0.202,0l0,0.154l-0.202,0c-0.094,0 -0.167,-0.033 -0.218,-0.099c-0.037,-0.048 -0.056,-0.107 -0.056,-0.175c0,-0.058 0.014,-0.109 0.041,-0.153c0.029,-0.047 0.069,-0.08 0.122,-0.101c0.034,-0.013 0.071,-0.019 0.111,-0.019c0.054,0 0.106,0.016 0.154,0.049c0.043,0.029 0.074,0.065 0.094,0.106c0.015,0.032 0.02,0.06 0.013,0.083c-0.006,0.026 -0.024,0.044 -0.055,0.052l-0.187,0.053c-0.006,0.003 -0.012,0.004 -0.019,0.004c-0.019,0 -0.034,-0.007 -0.047,-0.019c-0.012,-0.013 -0.018,-0.028 -0.018,-0.046c0,-0.015 0.004,-0.029 0.014,-0.041c0.009,-0.011 0.021,-0.019 0.035,-0.023l0.108,-0.03Z" style="fill:#0b0808;fill-rule:nonzero;"/></g><g transform="matrix(300,0,0,300,1520.79,410.759)"><path d="M0.436,-0.547l0,0.159l-0.044,0c-0.077,0 -0.123,0.002 -0.14,0.008c-0.042,0.012 -0.063,0.049 -0.063,0.111c0,0.061 0.021,0.099 0.062,0.112c0.017,0.005 0.064,0.007 0.141,0.007l0.044,0l0,0.159l-0.044,0.001c-0.12,0 -0.205,-0.016 -0.254,-0.046c-0.036,-0.022 -0.063,-0.052 -0.081,-0.089c-0.019,-0.038 -0.028,-0.086 -0.028,-0.144c0,-0.063 0.011,-0.114 0.033,-0.154c0.021,-0.039 0.053,-0.068 0.094,-0.089c0.048,-0.024 0.126,-0.036 0.236,-0.035l0.044,0Z" style="fill:#0b0808;fill-rule:nonzero;"/></g><g transform="matrix(300,0,0,300,1648.32,410.759)"><path d="M0.199,0l-0.16,0l0,-0.727l0.16,0l0,0.23c0.038,-0.029 0.082,-0.043 0.132,-0.043c0.062,0 0.115,0.023 0.159,0.068c0.048,0.05 0.072,0.118 0.072,0.203l0,0.269l-0.16,0l0,-0.269c0,-0.038 -0.009,-0.066 -0.026,-0.084c-0.016,-0.017 -0.041,-0.025 -0.076,-0.025c-0.034,0 -0.059,0.008 -0.075,0.025c-0.017,0.018 -0.026,0.046 -0.026,0.084l0,0.269Z" style="fill:#0b0808;fill-rule:nonzero;"/></g></g></g><ellipse cx="205.117" cy="18.684" rx="2.352" ry="2.424" style="fill:#f7051b;stroke:#f7051b;stroke-width:8.51px;"/></g></svg>